<svg id="visual" viewBox="0 0 900 450" width="900" height="450" xmlns="http://www.w3.org/2000/svg" xmlns:xlink="http://www.w3.org/1999/xlink" version="1.1"><rect x="0" y="0" width="900" height="450" fill="#050021"></rect><path d="M0 306L75 309L150 295L225 304L300 290L375 285L450 285L525 280L600 310L675 303L750 281L825 295L900 296L900 451L825 451L750 451L675 451L600 451L525 451L450 451L375 451L300 451L225 451L150 451L75 451L0 451Z" fill="#f50ae1"></path><path d="M0 308L75 332L150 330L225 312L300 325L375 329L450 311L525 339L600 342L675 325L750 340L825 321L900 306L900 451L825 451L750 451L675 451L600 451L525 451L450 451L375 451L300 451L225 451L150 451L75 451L0 451Z" fill="#c820d5"></path><path d="M0 355L75 348L150 368L225 351L300 347L375 355L450 346L525 359L600 368L675 346L750 340L825 370L900 337L900 451L825 451L750 451L675 451L600 451L525 451L450 451L375 451L300 451L225 451L150 451L75 451L0 451Z" fill="#9b28c6"></path><path d="M0 388L75 379L150 366L225 378L300 390L375 385L450 370L525 373L600 369L675 386L750 380L825 356L900 362L900 451L825 451L750 451L675 451L600 451L525 451L450 451L375 451L300 451L225 451L150 451L75 451L0 451Z" fill="#6f29b3"></path><path d="M0 392L75 405L150 406L225 398L300 417L375 384L450 415L525 407L600 396L675 400L750 400L825 403L900 401L900 451L825 451L750 451L675 451L600 451L525 451L450 451L375 451L300 451L225 451L150 451L75 451L0 451Z" fill="#43269e"></path><path d="M0 409L75 428L150 415L225 425L300 434L375 421L450 414L525 427L600 408L675 435L750 413L825 436L900 431L900 451L825 451L750 451L675 451L600 451L525 451L450 451L375 451L300 451L225 451L150 451L75 451L0 451Z" fill="#002187"></path></svg>