<svg id="visual" viewBox="0 0 900 450" width="900" height="450" xmlns="http://www.w3.org/2000/svg" xmlns:xlink="http://www.w3.org/1999/xlink" version="1.1"><rect x="0" y="0" width="900" height="450" fill="#050021"></rect><path d="M0 129L50 129L50 146L100 146L100 152L150 152L150 166L200 166L200 160L250 160L250 119L300 119L300 132L350 132L350 142L400 142L400 163L450 163L450 138L500 138L500 175L550 175L550 164L600 164L600 178L650 178L650 140L700 140L700 156L750 156L750 141L800 141L800 163L850 163L850 173L900 173L900 125L900 0L900 0L850 0L850 0L800 0L800 0L750 0L750 0L700 0L700 0L650 0L650 0L600 0L600 0L550 0L550 0L500 0L500 0L450 0L450 0L400 0L400 0L350 0L350 0L300 0L300 0L250 0L250 0L200 0L200 0L150 0L150 0L100 0L100 0L50 0L50 0L0 0Z" fill="#c33bff"></path><path d="M0 113L50 113L50 105L100 105L100 131L150 131L150 122L200 122L200 113L250 113L250 133L300 133L300 140L350 140L350 91L400 91L400 89L450 89L450 145L500 145L500 132L550 132L550 113L600 113L600 107L650 107L650 112L700 112L700 98L750 98L750 102L800 102L800 129L850 129L850 130L900 130L900 137L900 0L900 0L850 0L850 0L800 0L800 0L750 0L750 0L700 0L700 0L650 0L650 0L600 0L600 0L550 0L550 0L500 0L500 0L450 0L450 0L400 0L400 0L350 0L350 0L300 0L300 0L250 0L250 0L200 0L200 0L150 0L150 0L100 0L100 0L50 0L50 0L0 0Z" fill="#9d2de3"></path><path d="M0 89L50 89L50 80L100 80L100 106L150 106L150 109L200 109L200 92L250 92L250 74L300 74L300 60L350 60L350 90L400 90L400 59L450 59L450 66L500 66L500 75L550 75L550 60L600 60L600 80L650 80L650 110L700 110L700 69L750 69L750 71L800 71L800 104L850 104L850 79L900 79L900 71L900 0L900 0L850 0L850 0L800 0L800 0L750 0L750 0L700 0L700 0L650 0L650 0L600 0L600 0L550 0L550 0L500 0L500 0L450 0L450 0L400 0L400 0L350 0L350 0L300 0L300 0L250 0L250 0L200 0L200 0L150 0L150 0L100 0L100 0L50 0L50 0L0 0Z" fill="#791ec7"></path><path d="M0 62L50 62L50 39L100 39L100 72L150 72L150 67L200 67L200 83L250 83L250 76L300 76L300 53L350 53L350 51L400 51L400 57L450 57L450 74L500 74L500 79L550 79L550 66L600 66L600 77L650 77L650 32L700 32L700 39L750 39L750 52L800 52L800 35L850 35L850 86L900 86L900 33L900 0L900 0L850 0L850 0L800 0L800 0L750 0L750 0L700 0L700 0L650 0L650 0L600 0L600 0L550 0L550 0L500 0L500 0L450 0L450 0L400 0L400 0L350 0L350 0L300 0L300 0L250 0L250 0L200 0L200 0L150 0L150 0L100 0L100 0L50 0L50 0L0 0Z" fill="#550eab"></path><path d="M0 13L50 13L50 7L100 7L100 39L150 39L150 6L200 6L200 51L250 51L250 41L300 41L300 12L350 12L350 42L400 42L400 30L450 30L450 0L500 0L500 44L550 44L550 50L600 50L600 13L650 13L650 39L700 39L700 26L750 26L750 58L800 58L800 14L850 14L850 29L900 29L900 23L900 0L900 0L850 0L850 0L800 0L800 0L750 0L750 0L700 0L700 0L650 0L650 0L600 0L600 0L550 0L550 0L500 0L500 0L450 0L450 0L400 0L400 0L350 0L350 0L300 0L300 0L250 0L250 0L200 0L200 0L150 0L150 0L100 0L100 0L50 0L50 0L0 0Z" fill="#2f008f"></path></svg>