<svg id="visual" viewBox="0 0 900 450" width="900" height="450" xmlns="http://www.w3.org/2000/svg" xmlns:xlink="http://www.w3.org/1999/xlink" version="1.1"><rect width="900" height="450" fill="#204560"></rect><g><g transform="translate(592 386)"><path d="M0 -76.9L60.1 -47.9L75 17.1L33.4 69.3L-33.4 69.3L-75 17.1L-60.1 -47.9Z" fill="#1e293e"></path></g><g transform="translate(166 251)"><path d="M0 -68L53.2 -42.4L66.3 15.1L29.5 61.3L-29.5 61.3L-66.3 15.1L-53.2 -42.4Z" fill="#1e293e"></path></g><g transform="translate(243 106)"><path d="M0 -72L56.3 -44.9L70.2 16L31.2 64.9L-31.2 64.9L-70.2 16L-56.3 -44.9Z" fill="#1e293e"></path></g><g transform="translate(808 56)"><path d="M0 -72L56.3 -44.9L70.2 16L31.2 64.9L-31.2 64.9L-70.2 16L-56.3 -44.9Z" fill="#1e293e"></path></g><g transform="translate(775 438)"><path d="M0 -68L53.2 -42.4L66.3 15.1L29.5 61.3L-29.5 61.3L-66.3 15.1L-53.2 -42.4Z" fill="#1e293e"></path></g></g></svg>