<svg id="visual" viewBox="0 0 900 450" width="900" height="450" xmlns="http://www.w3.org/2000/svg" xmlns:xlink="http://www.w3.org/1999/xlink" version="1.1"><path d="M0 127L69 127L69 51L138 51L138 123L208 123L208 91L277 91L277 114L346 114L346 127L415 127L415 141L485 141L485 114L554 114L554 105L623 105L623 55L692 55L692 24L762 24L762 96L831 96L831 33L900 33L900 46L900 0L900 0L831 0L831 0L762 0L762 0L692 0L692 0L623 0L623 0L554 0L554 0L485 0L485 0L415 0L415 0L346 0L346 0L277 0L277 0L208 0L208 0L138 0L138 0L69 0L69 0L0 0Z" fill="#ec7bdf"></path><path d="M0 181L69 181L69 141L138 141L138 217L208 217L208 159L277 159L277 168L346 168L346 168L415 168L415 181L485 181L485 195L554 195L554 172L623 172L623 96L692 96L692 64L762 64L762 159L831 159L831 91L900 91L900 73L900 44L900 31L831 31L831 94L762 94L762 22L692 22L692 53L623 53L623 103L554 103L554 112L485 112L485 139L415 139L415 125L346 125L346 112L277 112L277 89L208 89L208 121L138 121L138 49L69 49L69 125L0 125Z" fill="#dc6ed7"></path><path d="M0 231L69 231L69 181L138 181L138 253L208 253L208 195L277 195L277 199L346 199L346 222L415 222L415 199L485 199L485 222L554 222L554 199L623 199L623 141L692 141L692 114L762 114L762 186L831 186L831 127L900 127L900 114L900 71L900 89L831 89L831 157L762 157L762 62L692 62L692 94L623 94L623 170L554 170L554 193L485 193L485 179L415 179L415 166L346 166L346 166L277 166L277 157L208 157L208 215L138 215L138 139L69 139L69 179L0 179Z" fill="#cb61ce"></path><path d="M0 249L69 249L69 181L138 181L138 289L208 289L208 222L277 222L277 217L346 217L346 235L415 235L415 222L485 222L485 226L554 226L554 217L623 217L623 168L692 168L692 141L762 141L762 213L831 213L831 159L900 159L900 145L900 112L900 125L831 125L831 184L762 184L762 112L692 112L692 139L623 139L623 197L554 197L554 220L485 220L485 197L415 197L415 220L346 220L346 197L277 197L277 193L208 193L208 251L138 251L138 179L69 179L69 229L0 229Z" fill="#ba54c6"></path><path d="M0 276L69 276L69 208L138 208L138 307L208 307L208 231L277 231L277 235L346 235L346 276L415 276L415 240L485 240L485 267L554 267L554 240L623 240L623 199L692 199L692 159L762 159L762 235L831 235L831 190L900 190L900 172L900 143L900 157L831 157L831 211L762 211L762 139L692 139L692 166L623 166L623 215L554 215L554 224L485 224L485 220L415 220L415 233L346 233L346 215L277 215L277 220L208 220L208 287L138 287L138 179L69 179L69 247L0 247Z" fill="#a947be"></path><path d="M0 289L69 289L69 262L138 262L138 352L208 352L208 271L277 271L277 240L346 240L346 316L415 316L415 271L485 271L485 280L554 280L554 258L623 258L623 217L692 217L692 190L762 190L762 258L831 258L831 195L900 195L900 177L900 170L900 188L831 188L831 233L762 233L762 157L692 157L692 197L623 197L623 238L554 238L554 265L485 265L485 238L415 238L415 274L346 274L346 233L277 233L277 229L208 229L208 305L138 305L138 206L69 206L69 274L0 274Z" fill="#973bb6"></path><path d="M0 325L69 325L69 271L138 271L138 366L208 366L208 321L277 321L277 253L346 253L346 352L415 352L415 298L485 298L485 289L554 289L554 312L623 312L623 276L692 276L692 231L762 231L762 294L831 294L831 249L900 249L900 190L900 175L900 193L831 193L831 256L762 256L762 188L692 188L692 215L623 215L623 256L554 256L554 278L485 278L485 269L415 269L415 314L346 314L346 238L277 238L277 269L208 269L208 350L138 350L138 260L69 260L69 287L0 287Z" fill="#852fae"></path><path d="M0 348L69 348L69 276L138 276L138 379L208 379L208 339L277 339L277 280L346 280L346 357L415 357L415 321L485 321L485 316L554 316L554 321L623 321L623 307L692 307L692 249L762 249L762 312L831 312L831 267L900 267L900 195L900 188L900 247L831 247L831 292L762 292L762 229L692 229L692 274L623 274L623 310L554 310L554 287L485 287L485 296L415 296L415 350L346 350L346 251L277 251L277 319L208 319L208 364L138 364L138 269L69 269L69 323L0 323Z" fill="#7223a6"></path><path d="M0 384L69 384L69 289L138 289L138 397L208 397L208 361L277 361L277 289L346 289L346 375L415 375L415 348L485 348L485 343L554 343L554 352L623 352L623 312L692 312L692 271L762 271L762 325L831 325L831 294L900 294L900 231L900 193L900 265L831 265L831 310L762 310L762 247L692 247L692 305L623 305L623 319L554 319L554 314L485 314L485 319L415 319L415 355L346 355L346 278L277 278L277 337L208 337L208 377L138 377L138 274L69 274L69 346L0 346Z" fill="#5f179e"></path><path d="M0 424L69 424L69 334L138 334L138 429L208 429L208 420L277 420L277 348L346 348L346 402L415 402L415 388L485 388L485 402L554 402L554 397L623 397L623 339L692 339L692 289L762 289L762 352L831 352L831 321L900 321L900 240L900 229L900 292L831 292L831 323L762 323L762 269L692 269L692 310L623 310L623 350L554 350L554 341L485 341L485 346L415 346L415 373L346 373L346 287L277 287L277 359L208 359L208 395L138 395L138 287L69 287L69 382L0 382Z" fill="#490b97"></path><path d="M0 451L69 451L69 451L138 451L138 451L208 451L208 451L277 451L277 451L346 451L346 451L415 451L415 451L485 451L485 451L554 451L554 451L623 451L623 451L692 451L692 451L762 451L762 451L831 451L831 451L900 451L900 451L900 238L900 319L831 319L831 350L762 350L762 287L692 287L692 337L623 337L623 395L554 395L554 400L485 400L485 386L415 386L415 400L346 400L346 346L277 346L277 418L208 418L208 427L138 427L138 332L69 332L69 422L0 422Z" fill="#2f008f"></path></svg>